<mxfile host="app.diagrams.net" agent="Mozilla/5.0 (X11; Linux x86_64) AppleWebKit/537.36 (KHTML, like Gecko) Chrome/135.0.0.0 Safari/537.36" version="26.2.14">
  <diagram name="Side-1" id="hylEhfDQwwEPBEYDcNoj">
    <mxGraphModel dx="1665" dy="717" grid="0" gridSize="10" guides="0" tooltips="1" connect="1" arrows="1" fold="1" page="0" pageScale="1" pageWidth="827" pageHeight="1169" math="0" shadow="0">
      <root>
        <mxCell id="0" />
        <mxCell id="1" parent="0" />
        <mxCell id="Ijvgve_hh81zZgXA6pIQ-2" value="" style="html=1;whiteSpace=wrap;" vertex="1" parent="1">
          <mxGeometry x="83" y="26" width="699" height="550" as="geometry" />
        </mxCell>
        <mxCell id="Ijvgve_hh81zZgXA6pIQ-3" value="Docker Swarm" style="text;html=1;align=center;verticalAlign=middle;resizable=0;points=[];autosize=1;strokeColor=none;fillColor=none;" vertex="1" parent="1">
          <mxGeometry x="84" y="32" width="97" height="26" as="geometry" />
        </mxCell>
        <mxCell id="Ijvgve_hh81zZgXA6pIQ-16" value="VM0" style="verticalAlign=top;align=left;spacingTop=8;spacingLeft=2;spacingRight=12;shape=cube;size=10;direction=south;fontStyle=4;html=1;whiteSpace=wrap;" vertex="1" parent="1">
          <mxGeometry x="121" y="73" width="303" height="239" as="geometry" />
        </mxCell>
        <mxCell id="Ijvgve_hh81zZgXA6pIQ-1" value="Manager" style="verticalAlign=top;align=left;spacingTop=8;spacingLeft=2;spacingRight=12;shape=cube;size=10;direction=south;fontStyle=4;html=1;whiteSpace=wrap;" vertex="1" parent="1">
          <mxGeometry x="137" y="114" width="248" height="172" as="geometry" />
        </mxCell>
        <mxCell id="Ijvgve_hh81zZgXA6pIQ-6" value="Managed Database" style="verticalAlign=top;align=left;spacingTop=8;spacingLeft=2;spacingRight=12;shape=cube;size=10;direction=south;fontStyle=4;html=1;whiteSpace=wrap;" vertex="1" parent="1">
          <mxGeometry x="890" y="97" width="167" height="131" as="geometry" />
        </mxCell>
        <mxCell id="Ijvgve_hh81zZgXA6pIQ-7" value="Postgresql" style="shape=cylinder3;whiteSpace=wrap;html=1;boundedLbl=1;backgroundOutline=1;size=15;" vertex="1" parent="1">
          <mxGeometry x="938" y="133" width="60" height="80" as="geometry" />
        </mxCell>
        <mxCell id="Ijvgve_hh81zZgXA6pIQ-12" value="API Container" style="verticalAlign=top;align=left;spacingTop=8;spacingLeft=2;spacingRight=12;shape=cube;size=10;direction=south;fontStyle=4;html=1;whiteSpace=wrap;" vertex="1" parent="1">
          <mxGeometry x="156" y="167" width="80" height="65" as="geometry" />
        </mxCell>
        <mxCell id="Ijvgve_hh81zZgXA6pIQ-13" value="Graphana Container&lt;span style=&quot;color: rgba(0, 0, 0, 0); font-family: monospace; font-size: 0px; text-wrap-mode: nowrap;&quot;&gt;%3CmxGraphModel%3E%3Croot%3E%3CmxCell%20id%3D%220%22%2F%3E%3CmxCell%20id%3D%221%22%20parent%3D%220%22%2F%3E%3CmxCell%20id%3D%222%22%20value%3D%22Worker%201%22%20style%3D%22verticalAlign%3Dtop%3Balign%3Dleft%3BspacingTop%3D8%3BspacingLeft%3D2%3BspacingRight%3D12%3Bshape%3Dcube%3Bsize%3D10%3Bdirection%3Dsouth%3BfontStyle%3D4%3Bhtml%3D1%3BwhiteSpace%3Dwrap%3B%22%20vertex%3D%221%22%20parent%3D%221%22%3E%3CmxGeometry%20x%3D%22379%22%20y%3D%22307%22%20width%3D%22244%22%20height%3D%22167%22%20as%3D%22geometry%22%2F%3E%3C%2FmxCell%3E%3C%2Froot%3E%3C%2FmxGraphModel%3E&lt;/span&gt;&lt;span style=&quot;color: rgba(0, 0, 0, 0); font-family: monospace; font-size: 0px; text-wrap-mode: nowrap;&quot;&gt;%3CmxGraphModel%3E%3Croot%3E%3CmxCell%20id%3D%220%22%2F%3E%3CmxCell%20id%3D%221%22%20parent%3D%220%22%2F%3E%3CmxCell%20id%3D%222%22%20value%3D%22Worker%201%22%20style%3D%22verticalAlign%3Dtop%3Balign%3Dleft%3BspacingTop%3D8%3BspacingLeft%3D2%3BspacingRight%3D12%3Bshape%3Dcube%3Bsize%3D10%3Bdirection%3Dsouth%3BfontStyle%3D4%3Bhtml%3D1%3BwhiteSpace%3Dwrap%3B%22%20vertex%3D%221%22%20parent%3D%221%22%3E%3CmxGeometry%20x%3D%22379%22%20y%3D%22307%22%20width%3D%22244%22%20height%3D%22167%22%20as%3D%22geometry%22%2F%3E%3C%2FmxCell%3E%3C%2Froot%3E%3C%2FmxGraphModel%3E&lt;/span&gt;" style="verticalAlign=top;align=left;spacingTop=8;spacingLeft=2;spacingRight=12;shape=cube;size=10;direction=south;fontStyle=4;html=1;whiteSpace=wrap;" vertex="1" parent="1">
          <mxGeometry x="265" y="164" width="84" height="69" as="geometry" />
        </mxCell>
        <mxCell id="Ijvgve_hh81zZgXA6pIQ-17" value="VM1" style="verticalAlign=top;align=left;spacingTop=8;spacingLeft=2;spacingRight=12;shape=cube;size=10;direction=south;fontStyle=4;html=1;whiteSpace=wrap;" vertex="1" parent="1">
          <mxGeometry x="450" y="75" width="303" height="239" as="geometry" />
        </mxCell>
        <mxCell id="Ijvgve_hh81zZgXA6pIQ-18" value="Worker" style="verticalAlign=top;align=left;spacingTop=8;spacingLeft=2;spacingRight=12;shape=cube;size=10;direction=south;fontStyle=4;html=1;whiteSpace=wrap;" vertex="1" parent="1">
          <mxGeometry x="466" y="116" width="248" height="172" as="geometry" />
        </mxCell>
        <mxCell id="Ijvgve_hh81zZgXA6pIQ-19" value="API Container" style="verticalAlign=top;align=left;spacingTop=8;spacingLeft=2;spacingRight=12;shape=cube;size=10;direction=south;fontStyle=4;html=1;whiteSpace=wrap;" vertex="1" parent="1">
          <mxGeometry x="485" y="169" width="80" height="65" as="geometry" />
        </mxCell>
        <mxCell id="Ijvgve_hh81zZgXA6pIQ-20" value="Web Container" style="verticalAlign=top;align=left;spacingTop=8;spacingLeft=2;spacingRight=12;shape=cube;size=10;direction=south;fontStyle=4;html=1;whiteSpace=wrap;" vertex="1" parent="1">
          <mxGeometry x="594" y="166" width="84" height="69" as="geometry" />
        </mxCell>
        <mxCell id="Ijvgve_hh81zZgXA6pIQ-21" value="VM2" style="verticalAlign=top;align=left;spacingTop=8;spacingLeft=2;spacingRight=12;shape=cube;size=10;direction=south;fontStyle=4;html=1;whiteSpace=wrap;" vertex="1" parent="1">
          <mxGeometry x="297" y="331" width="303" height="239" as="geometry" />
        </mxCell>
        <mxCell id="Ijvgve_hh81zZgXA6pIQ-22" value="Worker" style="verticalAlign=top;align=left;spacingTop=8;spacingLeft=2;spacingRight=12;shape=cube;size=10;direction=south;fontStyle=4;html=1;whiteSpace=wrap;" vertex="1" parent="1">
          <mxGeometry x="313" y="372" width="248" height="172" as="geometry" />
        </mxCell>
        <mxCell id="Ijvgve_hh81zZgXA6pIQ-23" value="API Container" style="verticalAlign=top;align=left;spacingTop=8;spacingLeft=2;spacingRight=12;shape=cube;size=10;direction=south;fontStyle=4;html=1;whiteSpace=wrap;" vertex="1" parent="1">
          <mxGeometry x="332" y="425" width="80" height="65" as="geometry" />
        </mxCell>
        <mxCell id="Ijvgve_hh81zZgXA6pIQ-24" value="Web Container" style="verticalAlign=top;align=left;spacingTop=8;spacingLeft=2;spacingRight=12;shape=cube;size=10;direction=south;fontStyle=4;html=1;whiteSpace=wrap;" vertex="1" parent="1">
          <mxGeometry x="441" y="422" width="84" height="69" as="geometry" />
        </mxCell>
        <mxCell id="Ijvgve_hh81zZgXA6pIQ-32" style="edgeStyle=orthogonalEdgeStyle;rounded=0;orthogonalLoop=1;jettySize=auto;html=1;" edge="1" parent="1" source="Ijvgve_hh81zZgXA6pIQ-25">
          <mxGeometry relative="1" as="geometry">
            <mxPoint x="783.6666666666667" y="359" as="targetPoint" />
          </mxGeometry>
        </mxCell>
        <mxCell id="Ijvgve_hh81zZgXA6pIQ-25" value="Actor" style="shape=umlActor;verticalLabelPosition=bottom;verticalAlign=top;html=1;outlineConnect=0;" vertex="1" parent="1">
          <mxGeometry x="969" y="329" width="30" height="60" as="geometry" />
        </mxCell>
        <mxCell id="Ijvgve_hh81zZgXA6pIQ-31" style="edgeStyle=orthogonalEdgeStyle;rounded=0;orthogonalLoop=1;jettySize=auto;html=1;exitX=1;exitY=0.25;exitDx=0;exitDy=0;entryX=0;entryY=0;entryDx=70.5;entryDy=167;entryPerimeter=0;" edge="1" parent="1" source="Ijvgve_hh81zZgXA6pIQ-2" target="Ijvgve_hh81zZgXA6pIQ-6">
          <mxGeometry relative="1" as="geometry">
            <Array as="points">
              <mxPoint x="782" y="168" />
              <mxPoint x="836" y="168" />
            </Array>
          </mxGeometry>
        </mxCell>
      </root>
    </mxGraphModel>
  </diagram>
</mxfile>
